<svg xmlns="http://www.w3.org/2000/svg" data-name="Layer 1" width="933.4427490234375" height="783.8935546875" style=""><rect id="backgroundrect" width="100%" height="100%" x="0" y="0" fill="none" stroke="none"/><title>lists</title><g class="currentLayer" style=""><title>Layer 1</title><path d="M553.5532392529296,756.14167 c0,15.28692 -94.57823,27.67192 -211.44706,27.7519 h-1.06254 c-57.04625,0 -108.84836,-2.93629 -147.02008,-7.7006 c-1.6338000000000001,-0.21709000000000003 -3.2448,-0.42273 -4.82149,-0.6398100000000001 c-6.48953,-0.8569000000000001 -12.556329999999999,-1.78234 -18.1433,-2.74209 c-26.70079,-4.6500900000000005 -42.52473,-10.41982 -42.52473,-16.6694 c0,-5.06144 10.35127,-9.79144 28.43745,-13.8817 c9.55149,-2.15939 21.25094,-4.1245 34.73271,-5.86116 q3.7190000000000003,-0.49700000000000005 7.63206,-0.93688 c37.60053,-4.39869 87.26605,-7.07223 141.70738,-7.07223 c10.579790000000001,0 20.98817,0.10286000000000001 31.15667,0.29707000000000006 C474.78757925292973,730.65188 553.5532392529296,742.19142 553.5532392529296,756.14167 z" fill="#3f3d56" id="svg_1"/><rect x="617.7049560546875" y="416.06561279296875" width="314.7541198730469" height="161.31149291992188" fill="#f2f2f2" id="svg_2"/><rect x="226.22952270507812" y="0.9836099743843079" width="314.7541198730469" height="161.31149291992188" fill="#f2f2f2" id="svg_3"/><path d="M541.9672692529297,163.27871 H225.24592925292967 V0 H541.9672692529297 zm-314.75413,-1.9672200000000002 H540.0000592529296 V1.9672099999999944 H227.2131392529297 z" fill="#0bd50b" id="svg_4" class="" fill-opacity="1"/><rect x="617.7049560546875" y="0.9836099743843079" width="314.7541198730469" height="161.31149291992188" fill="#f2f2f2" id="svg_5"/><rect x="226.22952270507812" y="208.5246124267578" width="314.7541198730469" height="161.31149291992188" fill="#f2f2f2" id="svg_6"/><rect x="617.7049560546875" y="208.5246124267578" width="314.7541198730469" height="161.31149291992188" fill="#f2f2f2" id="svg_7" class=""/><rect x="226.22952270507812" y="416.06561279296875" width="314.7541198730469" height="161.31149291992188" fill="#f2f2f2" id="svg_8"/><circle cx="40.3278694152832" cy="81.63935089111328" r="40.3278694152832" fill="#f2f2f2" id="svg_9"/><path d="M153.4426392529297,41.31148 a40.32788,40.32788 0 1 0 40.32787,40.32787 A40.32787,40.32787 0 0 0 153.4426392529297,41.31148 zm17.47631,55.31058 l-3.47721,3.47721 l-14.4909,-14.49091 l-14.49091,14.49091 l-3.47721,-3.47721 l14.49091,-14.4909 L133.0155092529297,65.673 l3.4772,-3.4772 L152.95083925292968,78.654 l16.45812,-16.45812 l3.4772,3.4772 l-16.45812,16.45813 z" fill="#f2f2f2" id="svg_10"/><polygon points="36.256 100.783 17.71 76.237 21.634 73.271 36.531 92.988 78.311 45.105 82.017 48.338 36.256 100.783" fill="#0bd50b" id="svg_11" class="" fill-opacity="1"/><path d="M506.7148792529297,577.04422 q-19.18523,-3.25031 -36.90106,-5.58273 l4.6690000000000005,-9.05252 c-1.5743900000000002,-0.5468200000000001 -8.49144,4.63729 -8.49144,4.63729 l6.1273,-26.27728 c-7.9182,0.9549000000000001 -11.9441,27.78561 -11.9441,27.78561 l-8.84669,-9.07128 l4.283,10.1985 a816.82143,816.82143 0 0 0 -93.62328,-5.89217 l3.99619,-7.748 c-1.5743900000000002,-0.5468200000000001 -8.49144,4.63729 -8.49144,4.63729 l6.12729,-26.27729 c-7.91819,0.95491 -11.9441,27.78562 -11.9441,27.78562 l-8.84668,-9.07129 l4.53634,10.80189 a525.9061,525.9061 0 0 0 -53.82008,3.65579 c4.042,-12.07 17.7728,-23.54953 17.7728,-23.54953 c-10.48615,3.11875 -15.98671,8.34487 -18.86091,13.21713 a211.63887,211.63887 0 0 1 12.23271,-73.124 s-21.67451,47.16568 -18.90888,78.82526 l0.33079000000000003,5.62183 c-18.3751,2.6310700000000002 -25.60407,8.81279 -25.60407,8.81279 z" fill="#3f3d56" id="svg_12"/><circle cx="355.7049560546875" cy="255.58758544921875" r="34.786869049072266" fill="#ff6584" id="svg_13"/><polygon points="728.996 475.767 724.918 472.504 747.757 452.112 805.67 452.112 805.67 470.057 768.149 495.343 728.996 475.767" fill="#3f3d56" id="svg_14"/><polygon points="816.229 463.551 816.229 452.52 808.54 452.52 808.54 455.221 805.67 452.112 786.909 472.504 779.568 477.398 768.186 560.56 785.352 577.726 825.246 577.726 825.246 473.32 816.229 463.551" fill="#ccc" id="svg_15"/><rect x="724.9180908203125" y="472.5039367675781" width="61.9912109375" height="105.22193145751953" fill="#f2f2f2" id="svg_16"/><rect x="748.98046875" y="552.0321655273438" width="11.419429779052734" height="25.693729400634766" fill="#ccc" id="svg_17"/><polygon points="736.745 559.373 736.745 555.295 731.851 555.295 731.851 559.373 736.338 559.373 736.745 559.373" fill="#3f3d56" id="svg_18"/><polygon points="736.338 562.636 731.851 562.636 731.851 566.714 736.745 566.714 736.745 562.636 736.338 562.636" fill="#3f3d56" id="svg_19"/><rect x="740.008056640625" y="555.2948608398438" width="4.894040107727051" height="4.078370094299316" fill="#3f3d56" id="svg_20"/><rect x="740.008056640625" y="562.6359252929688" width="4.894040107727051" height="4.078370094299316" fill="#3f3d56" id="svg_21"/><polygon points="770.188 559.373 770.188 555.295 765.294 555.295 765.294 559.373 769.78 559.373 770.188 559.373" fill="#3f3d56" id="svg_22"/><polygon points="769.78 562.636 765.294 562.636 765.294 566.714 770.188 566.714 770.188 562.636 769.78 562.636" fill="#3f3d56" id="svg_23"/><rect x="773.45068359375" y="555.2948608398438" width="4.894040107727051" height="4.078370094299316" fill="#3f3d56" id="svg_24"/><rect x="773.45068359375" y="562.6359252929688" width="4.894040107727051" height="4.078370094299316" fill="#3f3d56" id="svg_25"/><polygon points="804.446 477.806 804.446 473.727 799.552 473.727 799.552 477.806 804.038 477.806 804.446 477.806" fill="#3f3d56" id="svg_26"/><polygon points="804.038 481.069 799.552 481.069 799.552 485.147 804.446 485.147 804.446 481.069 804.038 481.069" fill="#3f3d56" id="svg_27"/><rect x="807.708984375" y="473.72747802734375" width="4.894040107727051" height="4.078370094299316" fill="#3f3d56" id="svg_28"/><rect x="807.708984375" y="481.06854248046875" width="4.894040107727051" height="4.078370094299316" fill="#3f3d56" id="svg_29"/><polygon points="804.446 500.645 804.446 496.566 799.552 496.566 799.552 500.645 804.038 500.645 804.446 500.645" fill="#3f3d56" id="svg_30"/><polygon points="804.038 503.907 799.552 503.907 799.552 507.986 804.446 507.986 804.446 503.907 804.038 503.907" fill="#3f3d56" id="svg_31"/><rect x="807.708984375" y="496.56634521484375" width="4.894040107727051" height="4.078370094299316" fill="#3f3d56" id="svg_32"/><rect x="807.708984375" y="503.90740966796875" width="4.894040107727051" height="4.078370094299316" fill="#3f3d56" id="svg_33"/><polygon points="804.446 523.484 804.446 519.405 799.552 519.405 799.552 523.484 804.038 523.484 804.446 523.484" fill="#3f3d56" id="svg_34"/><polygon points="804.038 526.746 799.552 526.746 799.552 530.825 804.446 530.825 804.446 526.746 804.038 526.746" fill="#3f3d56" id="svg_35"/><rect x="807.708984375" y="519.4052124023438" width="4.894040107727051" height="4.078370094299316" fill="#3f3d56" id="svg_36"/><rect x="807.708984375" y="526.7462768554688" width="4.894040107727051" height="4.078370094299316" fill="#3f3d56" id="svg_37"/><polygon points="804.446 546.322 804.446 542.244 799.552 542.244 799.552 546.322 804.038 546.322 804.446 546.322" fill="#3f3d56" id="svg_38"/><polygon points="804.038 549.585 799.552 549.585 799.552 553.664 804.446 553.664 804.446 549.585 804.038 549.585" fill="#3f3d56" id="svg_39"/><rect x="807.708984375" y="542.2440795898438" width="4.894040107727051" height="4.078370094299316" fill="#3f3d56" id="svg_40"/><rect x="807.708984375" y="549.5851440429688" width="4.894040107727051" height="4.078370094299316" fill="#3f3d56" id="svg_41"/><rect x="731.851318359375" y="477.8058166503906" width="47.309078216552734" height="9.788089752197266" fill="#3f3d56" id="svg_42"/><rect x="731.851318359375" y="497.38201904296875" width="47.309078216552734" height="9.788089752197266" fill="#3f3d56" id="svg_43"/><rect x="731.851318359375" y="516.9581909179688" width="47.309078216552734" height="9.788089752197266" fill="#3f3d56" id="svg_44"/><rect x="731.851318359375" y="536.5343627929688" width="47.309078216552734" height="9.788089752197266" fill="#3f3d56" id="svg_45"/><polygon points="355.902 469.793 397.421 469.793 397.421 459.771 420.328 459.771 420.328 469.793 463.279 469.793 463.279 514.176 420.328 514.176 420.328 570.012 397.421 570.012 397.421 514.176 355.902 514.176 334.426 489.837 355.902 469.793" fill="#3f3d56" id="svg_46"/><path d="M478.03283925292965,369.8361 h-1.9672200000000002 a96.39345,96.39345 0 1 0 -192.7869,0 h-1.9672100000000001 a98.36067,98.36067 0 0 1 196.72133,0 z" fill="#3f3d56" id="svg_47"/><rect x="404.1766662597656" y="355.9872131347656" width="2.5138399600982666" height="99.29686737060547" transform="matrix(1,-0.00188,0.00188,1,-74.53899,-84.23861) " fill="#3f3d56" id="svg_48"/><path d="M356.0423592529297,283.59564 c0.22517,34.72128 -24.15028,63.0277 -24.15028,63.0277 s-24.74052,-27.98789 -24.96569,-62.70917 s24.15027,-63.0277 24.15027,-63.0277 S355.8171792529297,248.87436000000002 356.0423592529297,283.59564 z" fill="#fdc134" id="svg_49"/><path d="M356.0423592529297,283.59564 c0.22517,34.72128 -24.15028,63.0277 -24.15028,63.0277 s-24.74052,-27.98789 -24.96569,-62.70917 s24.15027,-63.0277 24.15027,-63.0277 S355.8171792529297,248.87436000000002 356.0423592529297,283.59564 z" opacity="0.1" id="svg_50"/><rect x="371.4967346191406" y="356.0485534667969" width="2.5138399600982666" height="99.29686737060547" transform="matrix(1,-0.00188,0.00188,1,-74.53916,-84.29992) " fill="#3f3d56" id="svg_51"/><path d="M323.36241925292967,283.657 c0.22518000000000002,34.72128 -24.15027,63.0277 -24.15027,63.0277 s-24.74052,-27.9879 -24.96569,-62.70918 s24.15027,-63.0277 24.15027,-63.0277 S323.1372492529297,248.93568 323.36241925292967,283.657 z" fill="#fdc134" id="svg_52"/><rect x="465.54425048828125" y="291.8802490234375" width="1.9901299476623535" height="78.61032104492188" fill="#3f3d56" id="svg_53"/><path d="M485.9010692529297,301.89823 c0.12669,27.48807 -19.21262,49.86116 -19.21262,49.86116 s-19.54472,-22.19388 -19.67141,-49.68195 s19.21263,-49.86116 19.21263,-49.86116 S485.7743592529297,274.41015 485.9010692529297,301.89823 z" fill="#0bd50b" id="svg_54" class="" fill-opacity="1"/><circle cx="770.6087646484375" cy="291.6393737792969" r="68.40773010253906" fill="#3f3d56" id="svg_55"/><polygon points="777.45 266.171 777.45 294.807 735.823 294.807 728.132 304.034 729.01 294.807 725.269 294.807 725.269 266.171 777.45 266.171" fill="#0bd50b" id="svg_56" class="" fill-opacity="1"/><rect x="758.6771850585938" y="276.0347595214844" width="18.772350311279297" height="18.772350311279297" opacity="0.1" id="svg_57"/><polygon points="762.813 280.171 814.994 280.171 814.994 308.807 811.252 308.807 812.131 318.034 804.441 308.807 762.813 308.807 762.813 280.171" fill="#0bd50b" id="svg_58" class="" fill-opacity="1"/><ellipse cx="728.4505004882812" cy="307.5341491699219" rx="11.454319953918457" ry="1.1174900531768799" opacity="0.1" id="svg_59"/><ellipse cx="812.1306762695312" cy="322.4883728027344" rx="13.04518985748291" ry="1.2726999521255493" opacity="0.1" id="svg_60"/><path d="M809.4428592529297,21.031599999999997 H764.2393592529297 a9.60936,9.60936 0 0 0 -9.37409,7.496 L732.0248292529296,129.83763 a7.76645,7.76645 0 0 0 7.1941,9.46513 l46.46951,2.28955 a10.2603,10.2603 0 0 0 10.60137,-8.42156 l12.95649,-71.62734 l0.9639000000000001,0.27540000000000003 l2.47911,-13.57606 l-0.9922099999999999,-0.24805000000000002 l3.61661,-19.99376 A5.91643,5.91643 0 0 0 809.4428592529297,21.031599999999997 z" fill="#3f3d56" id="svg_61"/><path d="M770.1903592529297,23.21557 h-5.27661 a6.64081,6.64081 0 0 0 -6.48818,5.22521 l-21.92367,100.4835 a4.11488,4.11488 0 0 0 3.7511900000000002,4.98323 l46.31918,3.03571 a5.32916,5.32916 0 0 0 5.59329,-4.37305 l18.70761,-103.85948 a4.66768,4.66768 0 0 0 -4.59375,-5.49512 h-5.00569 a2.20288,2.20288 0 0 0 -2.12714,1.6302 h0 a1.94476,1.94476 0 0 1 -1.8778900000000003,1.43917 h-23.7638 a3.3243400000000003,3.3243400000000003 0 0 1 -3.31454,-3.06937 z" fill="#0bd50b" id="svg_62" class="" fill-opacity="1"/><circle cx="389.94677734375" cy="81.78849029541016" r="65.46092224121094" fill="#0bd50b" id="svg_63" class="" fill-opacity="1"/><path d="M446.94652925292974,122.888 c-12.56848,0.0007800000000000002 -40.32306,-12.90833 -65.00687,-28.02709 c-30.63032,-18.761 -60.3785,-43.28289 -55.17787,-51.77425 c1.47,-2.39963 5.11342,-3.02717 11.14053,-1.9207900000000002 l-0.43212000000000006,2.35291 c-4.66729,-0.8587900000000002 -7.82566,-0.559 -8.66849,0.8167500000000001 c-1.2294,2.00722 1.48128,7.83423 12.77519,18.16852 c10.29225,9.41867 25.07038,20.18508 41.61241,30.31694 c16.54164,10.13186 32.84776,18.40443 45.91376,23.294 c14.33783,5.36608 20.76007,5.13172 21.9887,3.12606 c0.8440000000000001,-1.37811 -0.3285700000000001,-4.33132 -3.21755,-8.10362 l1.899,-1.45441 c3.73063,4.87167 4.82923,8.40649 3.35847,10.8069 C452.1218492529297,122.13900000000001 449.9748692529297,122.888 446.94652925292974,122.888 z" fill="#3f3d56" id="svg_64"/><circle cx="381.86669921875" cy="48.14091873168945" r="13.389730453491211" fill="#fff" id="svg_65"/><circle cx="385.74493408203125" cy="121.54293060302734" r="8.92648983001709" fill="#fff" id="svg_66"/><circle cx="416.4837341308594" cy="90.94043731689453" r="8.92648983001709" fill="#fff" id="svg_67"/><path d="M933.4427192529297,578.36071 H616.7213592529297 V415.082 h316.72134 zM618.6885892529297,576.3935 h312.78692 V417.04922 H618.6885892529297 z" fill="#0bd50b" id="svg_68" class="" fill-opacity="1"/><path d="M931.4755092529297,371.80332 H614.7541592529296 V208.52461 h316.72135 zM616.7213592529297,369.8361 h312.78691 V210.49182000000002 H616.7213592529297 z" fill="#0bd50b" id="svg_69" class="" fill-opacity="1"/><path d="M224.41014925292967,720.30317 c5.36982,19.85008 23.76267,32.14374 23.76267,32.14374 s9.68665,-19.88969 4.31683,-39.73977 s-23.76267,-32.14374 -23.76267,-32.14374 S219.0403592529297,700.45308 224.41014925292967,720.30317 z" fill="#3f3d56" id="svg_70"/><path d="M232.3007192529297,716.03717 c14.73487,14.3438 16.53462,36.39356 16.53462,36.39356 s-22.09018,-1.20614 -36.825,-15.54994 s-16.53463,-36.39355 -16.53463,-36.39355 S217.5658492529297,701.69337 232.3007192529297,716.03717 z" fill="#0bd50b" id="svg_71" class="" fill-opacity="1"/><path d="M283.77735925292967,443.63387 l-15.70335,1.7448200000000003 s-6.97927,31.4067 0,73.28231 S283.77735925292967,602.41221 283.77735925292967,602.41221 s6.97927,136.09571 10.4689,137.84053 s34.89634,12.21372 36.64115,1.7448200000000003 s1.7448200000000003,-249.50882000000001 1.7448200000000003,-249.50882000000001 l24.42744,115.15792 s3.48963,144.8198 10.4689,144.8198 s29.66188,-1.7448200000000003 29.66188,-13.95854 S402.42489925292966,565.771 402.42489925292966,565.771 s-1.7448100000000002,-118.64754 -8.72408,-122.13718 S283.77735925292967,443.63387 283.77735925292967,443.63387 z" fill="#2f2e41" id="svg_72"/><path d="M297.73588925292967,735.01829 s-15.70335,-1.7448200000000003 -19.193,0 s-8.72409,13.95853 0,20.9378 s31.4067,17.44817 38.386,17.44817 s13.95853,-3.48963 13.95853,-3.48963 l-3.48963,-29.66189 z" fill="#2f2e41" id="svg_73"/><path d="M367.5285692529297,743.74237 l1.7448100000000002,24.42744 s22.68262,3.48963 24.42744,0 s19.193,-12.21372 20.9378,-13.95854 s3.48964,-20.9378 -6.97926,-22.68262 s-13.95854,3.48964 -13.95854,3.48964 z" fill="#2f2e41" id="svg_74"/><path d="M408.0755092529297,236.01531999999997 s38.147,-24.53087 37.26414,-41.38406 s-23.87951,-69.9918 -23.87951,-69.9918 s-17.99016,-37.4032 -25.14209,-22.11729 s9.39989,31.55733 9.39989,31.55733 l10.683300000000001,52.12683 l-29.03429,27.69849 z" fill="#a0616a" id="svg_75"/><circle cx="313.4392395019531" cy="169.69761657714844" r="31.406700134277344" fill="#a0616a" id="svg_76"/><path d="M297.73588925292967,188.89060999999998 l5.23445,33.15152 l38.386,-6.97927 s-1.7448100000000002,-33.15152 -1.7448100000000002,-36.64115 S297.73588925292967,188.89060999999998 297.73588925292967,188.89060999999998 z" fill="#a0616a" id="svg_77"/><path d="M295.9910792529297,222.04213 s43.62042,-10.4689 48.85487,-6.97927 s31.4067,6.97927 31.4067,6.97927 l29.66189,45.36524 l-8.72409,57.57895 s-1.7448100000000002,92.4753 1.7448200000000003,108.17865 s22.68262,17.44817 -17.44817,20.9378 s-47.11,-1.7448100000000002 -75.02712,5.23445 s-50.59969,-3.48963 -43.62042,-10.4689 s19.193,-118.64754 5.23445,-129.11645 s-19.193,-64.55822 -19.193,-64.55822 S295.9910792529297,230.76621 295.9910792529297,222.04213 z" fill="#3f3d56" id="svg_78"/><path d="M371.01819925292966,227.27658000000002 l5.23445,-5.23445 l10.4689,-10.4689 s34.02393,14.83094 32.27912,20.06539 s-13.08613,35.76875 -13.08613,35.76875 l-15.70335,5.23445 z" fill="#3f3d56" id="svg_79"/><path d="M324.3997092529297,131.64808 l-0.3218600000000001,-2.51594 a19.77829,19.77829 0 0 0 -6.2856,0.9877 a10.32665,10.32665 0 0 1 0.38800000000000007,-4.52107 a20.103,20.103 0 0 0 -5.81783,2.52934 l-1.26884,-4.59162 l-17.4426,8.59632 c-6.26123,3.08575 -12.86249,6.47669 -16.44172,12.46952 c-3.99031,6.68112 -3.29591,15.26752 -0.56816,22.55582 s7.26036,13.73814 10.89358,20.62 a51.51652,51.51652 0 0 0 4.95064,8.426 c6.58389,8.20751 19.3997,9.86569 28.68263,4.91211 c3.42591,-1.82815 6.53859,-4.56058 7.948,-8.17894 c0.8427500000000001,-2.16359 1.0354700000000001,-4.51792 1.58763,-6.77324 c1.14826,-4.69012 2.48122,-14.37168 6.29067,-17.3388 c1.67631,-1.30565 4.99988,3.02263 6.389,1.41483 c3.5699,-4.13179 2.8206800000000003,-10.5038 0.6035900000000001,-15.494 a113.05265,113.05265 0 0 0 -7.4426,-14.51667 C335.3463592529297,138.35867 324.3610992529297,131.3463 324.3997092529297,131.64808 z" fill="#2f2e41" id="svg_80"/><path d="M220.9639492529297,297.06926 S179.08835925292968,337.2 184.3227992529297,358.13785 s47.11005,82.00639 47.11005,82.00639 s40.13079,20.9378 45.36524,0 s-27.91707,-15.70335 -27.91707,-15.70335 l-26.17225,-62.81341 l29.66188,-41.87561 z" fill="#a0616a" id="svg_81"/><path d="M269.8188192529297,258.68328 l-20.9378,-3.48963 s-15.70335,17.44817 -20.9378,24.42744 s-15.70335,24.42743 -15.70335,24.42743 l36.64115,26.17226 l27.91707,-29.66189 z" fill="#3f3d56" id="svg_82"/></g></svg>