<svg xmlns="http://www.w3.org/2000/svg" data-name="Layer 1" width="713.36746" height="781.27553"><rect id="backgroundrect" width="100%" height="100%" x="0" y="0" fill="none" stroke="none"/><title>referral</title><g class="currentLayer" style=""><title>Layer 1</title><path d="M629.4321310791015,705.9249616064453 l-229.21475,0.75921 c-60.81042,-18.272100000000002 -110.63231,-81.736 -110.94745,-176.88721 a269.465,269.465 0 0 1 3.23811,-42.81223 l184.62183,-41.47768 l142.42432,-31.995 a283.26116,283.26116 0 0 1 29.25631,30.4193 l-136.19064,71.9123 L448.3727310791015,549.7698316064453 l72.19443,-24.90689 l149.84346,-51.69429 a363.36982,363.36982 0 0 1 24.91621,44.67248 L650.1157310791016,564.5659716064453 l51.14434,-33.48237 q0.32789000000000007,0.7693500000000001 0.6530000000000001,1.5411700000000002 C734.3264910791015,609.5747716064453 694.1098110791015,705.7107716064453 629.4321310791015,705.9249616064453 z" fill="#f2f2f2" id="svg_1"/><path d="M591.7632410791016,391.97584160644533 c-34.66293,9.9552 -77.27874,22.53336 -121.09466,35.60691 c-63.35145,18.90781 -129.20892,38.86137 -177.15524,53.44709 l0.03130000000000001,-0.171 a65.899,65.899 0 0 1 12.15994,-28.22451 c35.51715,-46.17886 80.74258,-78.4385 131.07658,-90.4187 h0.004420000000000001 a188.90679,188.90679 0 0 1 43.20152,-5.15431 C520.0329910791015,356.9287016064453 557.9648610791015,369.4888416064453 591.7632410791016,391.97584160644533 z" fill="#f2f2f2" id="svg_2"/><ellipse cx="360.2166748046875" cy="710.5360107421875" rx="228" ry="17" fill="#3f3d56" id="svg_3"/><path d="M326.2166610791015,428.7978216064453 c0,122.83942 -73.02608,165.73036 -163.10833,165.73036 S0.0000010791015654376679,551.6372416064453 0.0000010791015654376679,428.7978216064453 S163.10833107910156,149.6872716064453 163.10833107910156,149.6872716064453 S326.2166610791015,305.95839160644533 326.2166610791015,428.7978216064453 z" fill="#f2f2f2" id="svg_4"/><polygon points="157.167 575.737 158.837 472.932 228.358 345.747 159.099 456.805 159.85 410.579 207.763 318.562 160.048 398.346 160.048 398.347 161.399 315.208 212.706 241.951 161.611 302.134 162.455 149.687 157.152 351.5 157.588 343.174 105.424 263.329 156.751 359.156 151.891 452.008 151.746 449.543 91.61 365.517 151.564 458.25 150.956 469.862 150.847 470.036 150.897 470.99 138.566 706.562 155.041 706.562 157.018 584.884 216.825 492.38 157.167 575.737" fill="#3f3d56" id="svg_5"/><path d="M520.9032410791016,29.130011606445308 V677.3299616064453 a29.13911,29.13911 0 0 1 -29.13,29.11005 h-263.15 a29.0791,29.0791 0 0 1 -29.13,-29.11 V29.130011606445308 a29.12749,29.12749 0 0 1 29.13,-29.13 h39.38 v5.05 a23.987,23.987 0 0 0 23.98,23.99 h133.84 a23.78923,23.78923 0 0 0 14.22,-4.68 a22.28455,22.28455 0 0 0 2.36,-1.98 a23.917,23.917 0 0 0 7.4,-17.33 v-5.05 h41.97 A29.12108,29.12108 0 0 1 520.9032410791016,29.130011606445308 z" fill="#3f3d56" id="svg_6"/><path d="M348.22647107910154,253.8005516064453 c0.008780000000000003,18.08931 -10.74208,24.4098 -24.00649,24.41624 q-0.46216,0.00022000000000000006 -0.91988,-0.009870000000000004 q-0.92212,-0.019440000000000002 -1.8250000000000002,-0.08314000000000002 c-11.972,-0.8418200000000001 -21.27711,-7.47688 -21.28528,-24.2999 c-0.00846,-17.40973 22.23173,-39.39129 23.89967,-41.01662 l0.0029300000000000007,-0.0014800000000000004 c0.06337000000000001,-0.06194000000000001 0.09580000000000002,-0.09291000000000002 0.09580000000000002,-0.09291000000000002 S348.21773107910155,235.71271160644534 348.22647107910154,253.8005516064453 z" fill="#0bd50b" id="svg_7" class="" fill-opacity="1"/><path d="M323.34445107910153,275.4502316064453 l8.77851,-12.27805 l-8.8,13.62544 l-0.022890000000000004,1.4093 q-0.92212,-0.019440000000000002 -1.8250000000000002,-0.08314000000000002 l0.9376200000000001,-18.09715 l-0.007430000000000002,-0.14 l0.016180000000000003,-0.026550000000000008 l0.08911000000000002,-1.71006 l-8.83533,-13.650780000000001 l8.86123,12.36973 l0.022300000000000007,0.36264 l0.7083200000000001,-13.67311 l-7.56483,-14.10691 l7.65653,11.704 l0.7306900000000002,-28.348300000000002 l0.002890000000000001,-0.09434000000000002 l0,0.09286000000000003 l-0.11295000000000001,22.35557 l7.51828,-8.86625 l-7.54979,10.79151 l-0.19306000000000004,12.24293 l7.02156,-11.7524 L323.72773107910155,251.1294916064453 l-0.10725000000000001,6.80769 L333.8107310791015,241.57799160644532 l-10.22888,18.73406 z" fill="#3f3d56" id="svg_8"/><polygon points="474.198 484.701 246.198 484.701 246.198 506.979 246.198 540.906 246.198 559.994 265.287 540.906 474.198 540.906 474.198 484.701" fill="#0bd50b" id="svg_9" class="" fill-opacity="1"/><rect x="297.0649108886719" y="498.3477478027344" width="128.26666259765625" height="10.399999618530273" fill="#fff" id="svg_10"/><rect x="297.0649108886719" y="513.94775390625" width="128.26666259765625" height="10.399999618530273" fill="#fff" id="svg_11"/><polygon points="246.198 382.201 474.198 382.201 474.198 404.479 474.198 438.406 474.198 457.494 455.11 438.406 246.198 438.406 246.198 382.201" fill="#0bd50b" id="svg_12" class="" fill-opacity="1"/><rect x="285.0649108886719" y="396.8477478027344" width="128.26666259765625" height="10.399999618530273" fill="#fff" id="svg_13"/><rect x="285.0649108886719" y="412.44775390625" width="128.26666259765625" height="10.399999618530273" fill="#fff" id="svg_14"/><path d="M237.19825107910157,146.4457716064453 V330.0376916064453 h246 V146.4457716064453 zm31.69933,2.31141 a3.96242,3.96242 0 1 1 -3.96242,3.96241 A3.9624,3.9624 0 0 1 268.89758107910154,148.75716160644532 zm-23.7745,7.92483 a3.96242,3.96242 0 1 1 3.96242,-3.96242 A3.96242,3.96242 0 0 1 245.12308107910155,156.6819916064453 zm7.92484,-3.96242 a3.96242,3.96242 0 1 1 3.96241,3.96242 A3.9624,3.9624 0 0 1 253.04792107910157,152.7195716064453 zM389.4210710791016,278.5262816064453 H257.01033107910155 v-98.4 H389.4210710791016 z" fill="#f2f2f2" id="svg_15"/><rect x="469.9902038574219" y="149.7477569580078" width="7.924829959869385" height="0.9905999898910522" fill="#fff" id="svg_16"/><rect x="469.9902038574219" y="152.71957397460938" width="7.924829959869385" height="0.9905999898910522" fill="#fff" id="svg_17"/><rect x="469.9902038574219" y="155.69137573242188" width="7.924829959869385" height="0.9905999898910522" fill="#fff" id="svg_18"/><rect x="410.2237548828125" y="178.4752655029297" width="59.766441345214844" height="2.9718101024627686" fill="#fff" id="svg_19"/><rect x="410.2237548828125" y="188.71151733398438" width="59.766441345214844" height="2.9718101024627686" fill="#fff" id="svg_20"/><rect x="410.2237548828125" y="198.94775390625" width="59.766441345214844" height="2.9718101024627686" fill="#fff" id="svg_21"/><rect x="410.2237548828125" y="209.1840057373047" width="59.766441345214844" height="2.9718101024627686" fill="#fff" id="svg_22"/><rect x="410.2237548828125" y="219.4202423095703" width="59.766441345214844" height="2.9718101024627686" fill="#fff" id="svg_23"/><rect x="410.2237548828125" y="229.65647888183594" width="59.766441345214844" height="2.9718101024627686" fill="#fff" id="svg_24"/><rect x="410.2237548828125" y="239.89271545410156" width="59.766441345214844" height="2.9718101024627686" fill="#fff" id="svg_25"/><rect x="410.2237548828125" y="250.12896728515625" width="59.766441345214844" height="2.9718101024627686" fill="#fff" id="svg_26"/><rect x="410.2237548828125" y="260.3652038574219" width="59.766441345214844" height="2.9718101024627686" fill="#fff" id="svg_27"/><rect x="410.2237548828125" y="270.6014404296875" width="59.766441345214844" height="2.9718101024627686" fill="#fff" id="svg_28"/><circle cx="264.9351501464844" cy="285.46051025390625" r="3.9624199867248535" fill="#fff" id="svg_29"/><circle cx="278.4734191894531" cy="285.46051025390625" r="3.9624199867248535" fill="#fff" id="svg_30"/><circle cx="292.01165771484375" cy="285.46051025390625" r="3.9624199867248535" fill="#fff" id="svg_31"/><rect x="410.2237548828125" y="304.9423828125" width="59.766441345214844" height="16.840269088745117" fill="#0bd50b" id="svg_32" class="" fill-opacity="1"/><path d="M144.90673107910158,535.5200516064453 l-2.19087,76.6803 l-23.36924,89.8255 s5.112,15.33606 1.46058,18.98751 s-20.44808,10.224 -20.44808,10.224 L114.23459107910156,539.9017716064453 z" fill="#2f2e41" id="svg_33"/><path d="M94.16999107910158,720.6391416064453 s-8.33383,18.33442 3.33353,20.00119 s65.55945,6.11147 62.22592,-3.33353 s-43.8915,-18.33443 -43.8915,-18.33443 z" fill="#2f2e41" id="svg_34"/><path d="M63.11439107910155,467.60321160644526 s8.76346,47.46876 14.60577,55.50193 s-2.92115,66.45627 -2.92115,66.45627 s-13.1452,83.98319 -7.30289,97.12838 s4.38173,8.76346 3.65145,16.06635 s-2.19087,13.1452 0,19.71779 s2.19086,5.84231 2.92115,9.49376 s0,23.36923 0,23.36923 s31.40241,10.95433 36.51443,-5.112 c0,0 -7.30289,-10.224 -5.112,-18.25721 a97.25834,97.25834 0 0 0 3.65144,-24.82982 V691.8017716064453 L142.71585107910158,566.1921716064453 l8.03317,-45.27789 s-2.19086,-46.00819 -10.224,-50.389920000000004 S63.11439107910155,467.60321160644526 63.11439107910155,467.60321160644526 z" fill="#2f2e41" id="svg_35"/><path d="M76.25959107910154,751.6854816064454 s-10.95433,24.09952 4.38173,26.29039 s86.17405,8.03317 81.79232,-4.38173 s-57.6928,-24.09953 -57.6928,-24.09953 z" fill="#2f2e41" id="svg_36"/><circle cx="90.14269256591797" cy="228.09901428222656" r="29.21154022216797" fill="#ffb9b9" id="svg_37"/><path d="M69.61567107910156,241.0074816064453 l0.5437900000000001,37.30514 l35.81374,0.12127000000000002 s-9.08919,-29.20329 -5.018,-35.30993 S69.61567107910156,241.0074816064453 69.61567107910156,241.0074816064453 z" fill="#ffb9b9" id="svg_38"/><path d="M122.99806107910155,298.90654160644533 s-25.5601,-32.863 -45.2779,-18.98751 s-27.02068,46.73847 -27.02068,46.73847 l4.38174,92.01637 s10.95433,13.14519 4.38173,21.90866 s-10.224,6.57259 -5.112,13.14519 s10.95433,11.68462 8.76346,13.87549 s2.19087,3.65144 2.19087,3.65144 l77.41059,2.19086 s-2.19087,-2.92115 4.38173,-11.68461 s-1.46058,-20.44808 0,-24.82982 s2.92116,0.7302900000000001 3.65144,-9.49375 S122.99806107910155,298.90654160644533 122.99806107910155,298.90654160644533 z" fill="#3f3d56" id="svg_39"/><path d="M115.69517107910156,487.3210016064453 s1.46058,18.25721 12.41491,21.17837 c4.10787,1.0954300000000001 7.18878,-0.9927400000000001 9.43527,-4.03085 a17.93477,17.93477 0 0 0 0.57336,-20.12122 l-2.70575,-4.32919 z" fill="#ffb9b9" id="svg_40"/><path d="M48.14347107910157,262.0269616064453 s-0.73028,14.60577 0,16.79664 s1.46058,4.38173 0,6.5726 s-0.73028,9.49375 0.7302900000000001,10.224 s-2.92115,7.30288 -1.4605700000000001,11.68461 s2.92115,5.84231 3.65144,7.30289 s1.9067,4.07742 1.9067,4.07742 s21.46253,-45.70387 38.98946,-34.74954 s31.40241,14.60577 31.40241,14.60577 S113.86945107910157,247.4211916064453 48.14347107910157,262.0269616064453 z" fill="#3f3d56" id="svg_41"/><path d="M79.91103107910158,295.9853816064453 s-23.36924,2.19087 -21.90866,32.863 s-2.19087,78.87117 -2.19087,78.87117 s40.16588,61.34424 46.73848,65.726 s7.30288,3.65145 6.57259,7.30289 s-1.4605700000000001,6.5726 1.46058,9.49375 a25.21718,25.21718 0 0 0 5.84231,4.38173 s23.36924,-8.03317 21.17837,-15.33606 s-12.41491,-18.9875 -12.41491,-18.9875 s-17.52692,-28.48126 -18.25721,-32.863 s-0.7302900000000001,-3.65144 -2.92116,-5.84231 s-8.03317,-10.95433 -8.03317,-15.33606 V392.3834816064453 l6.12255,-74.15089 a21.49637,21.49637 0 0 0 -5.70094,-16.64789 C92.92340107910155,297.9484916064453 87.67035107910158,295.0542616064453 79.91103107910158,295.9853816064453 z" fill="#3f3d56" id="svg_42"/><path d="M108.98127107910159,205.57164160644533 a11.90283,11.90283 0 0 0 11.02985,-2.52548 c2.8546500000000004,-2.71251 3.81414,-7.41226 1.78294,-10.78584 c-1.754,-2.91319 -5.16532,-4.33793 -8.41146,-5.35075 a74.47,74.47 0 0 0 -22.11723,-3.37354 c-3.57572,-0.0010000000000000002 -7.30946,0.30371000000000004 -10.36931,2.15387 c-1.514,0.91545 -2.79626,2.17272 -4.29312,3.11595 c-2.7523400000000002,1.7343700000000002 -6.0573,2.3107100000000003 -9.07918,3.51556 a23.29009,23.29009 0 0 0 -13.27324,14.05621 a28.06457,28.06457 0 0 0 -1.29,6.60225 a36.17506,36.17506 0 0 0 3.15616,17.93107 c4.07486,8.88513 11.8305,16.356 12.92634,26.06932 c4.17488,-3.50467 5.39865,-9.38339 8.63233,-13.77152 a17.85552,17.85552 0 0 1 9.74781,-6.61632 a5.676,5.676 0 0 0 2.9518500000000003,-1.31946 a4.89045,4.89045 0 0 0 0.9237400000000001,-2.66007 l2.00431,-14.43131 c0.40790000000000004,-2.9370000000000003 0.9589200000000001,-6.14658 3.21269,-8.07341 a11.42324,11.42324 0 0 1 4.7855799999999995,-2.07675 a77.18486,77.18486 0 0 1 12.492,-2.037 " fill="#2f2e41" id="svg_43"/><path d="M59.36332107910158,418.1515116064453 l40.99579,53.201 S62.61014107910154,439.7969716064453 59.36332107910158,418.1515116064453 z" opacity="0.1" id="svg_44"/><polygon points="98.713 359.249 98.325 409.493 122.135 445.208 102.654 405.164 98.713 359.249" opacity="0.1" id="svg_45"/><path d="M541.7879810791015,692.2607716064454 l-4.744730000000001,-3.525 s-3.14071,17.54355 0.36393000000000003,20.172 s16.647,7.00928 16.647,12.26624 s29.78945,12.26625 30.66561,4.3808 s-2.62848,-12.26624 -2.62848,-12.26624 s-14.01857,-14.01856 -15.77089,-16.647 s-6.13312,-7.88544 -6.13312,-7.88544 z" fill="#2f2e41" id="svg_46"/><path d="M611.8807910791015,474.0969016064453 s-0.13144000000000003,0.771 -0.35915,2.18163 c-0.21037,1.25291 -0.4994700000000001,3.02277 -0.8499500000000001,5.2044 c-3.67994,22.456 -14.4129,88.56228 -13.68562,90.74391 c0.87616,2.62848 7.00928,12.26625 0,14.894730000000001 a5.43517,5.43517 0 0 0 -2.18163,2.3743600000000002 a50.924,50.924 0 0 0 -3.70614,8.74411 c-4.1793,12.126 -8.64781,31.533 -11.23244,44.97326 c-1.13028,5.90537 -1.9011900000000002,10.65414 -2.129,13.14241 a7.1456,7.1456 0 0 0 -0.026320000000000007,1.73483 c0.8761700000000001,3.50464 -5.257,15.77088 -7.88544,19.27552 s-7.00928,7.00929 -6.13312,10.51393 s-21.904,13.1424 -24.53248,7.00928 s-2.62848,-9.63776 -3.50464,-11.39008 s-1.75232,-14.01857 2.62848,-15.77089 s1.75232,-32.41792 6.13312,-38.551 c1.46312,-2.04147 3.6973700000000003,-8.95439 6.03675,-17.26914 c0.91991,-3.25929 1.8486900000000002,-6.72891 2.75993,-10.20724 c3.6973700000000003,-14.25514 6.9742,-28.59788 6.9742,-28.59788 l-0.87616,-102.51074 l48.18881,-6.13312 l1.2353100000000001,2.72485 l2.46206,5.40589 z" fill="#2f2e41" id="svg_47"/><path d="M614.5092710791016,642.3196616064453 s7.00928,-7.00928 10.51392,0 s7.00929,34.17024 13.14241,40.30337 s14.01856,36.79872 5.257,38.551 s-18.39937,-2.62848 -19.27553,-7.88544 s-19.27552,-32.41792 -19.27552,-35.04641 S617.1377310791015,665.9759816064453 617.1377310791015,665.9759816064453 z" fill="#2f2e41" id="svg_48"/><path d="M506.7415710791016,425.90809160644534 s11.39008,102.51074 14.01856,112.14851 s16.647,46.43649 21.02785,52.56961 s32.41792,56.07425 35.92256,58.70273 s10.51393,9.63776 10.51393,9.63776 s13.1424,13.1424 14.89472,15.77088 s16.647,-5.257 17.5232,-10.51392 s-0.87616,-14.01856 -1.75232,-17.5232 s1.75232,-8.7616 -0.87616,-11.39008 s-15.77088,-15.77089 -15.77088,-21.904 s-22.78016,-42.05569 -31.54177,-49.94113 s-7.00928,-21.02784 -7.00928,-21.02784 V488.99163160644537 l48.18881,-14.894730000000001 s-2.62848,-42.05568 -8.7616,-42.05568 S516.3793310791016,418.0226516064453 506.7415710791016,425.90809160644534 z" fill="#2f2e41" id="svg_49"/><circle cx="577.7105102539062" cy="250.67605590820312" r="28.91329002380371" fill="#9f616a" id="svg_50"/><path d="M568.0727810791016,273.4562216064453 s-3.50464,13.14241 -7.88544,16.64705 s11.39008,18.39936 11.39008,18.39936 l29.78945,1.75232 l5.257,-16.647 s-9.63776,-19.27553 -7.00928,-31.54177 S568.0727810791016,273.4562216064453 568.0727810791016,273.4562216064453 z" fill="#9f616a" id="svg_51"/><path d="M555.8065410791015,288.35095160644534 s7.88544,0.87616 9.63776,3.50464 s14.01857,10.51392 23.65633,8.7616 s15.77088,-4.3808 17.5232,-3.50464 s5.257,19.27552 5.257,19.27552 l-9.63776,28.03713 l1.75232,77.10209 l2.62848,21.02785 s5.257,-7.00928 -15.77088,-2.62848 s-48.18881,-3.50464 -56.95041,-4.3808 s-23.65633,-3.50464 -24.53249,-8.761610000000001 S511.99853107910155,402.2517716064453 511.99853107910155,402.2517716064453 l14.01856,-58.70273 L534.7787310791016,312.00727160644533 z" fill="#3f3d56" id="svg_52"/><path d="M564.0940510791015,284.3964816064453 s-7.41135,-3.931 -10.03983,-0.42633000000000004 s-35.92257,8.7616 -35.92257,11.39008 s-7.00928,73.59745 -5.257,79.73057 s-3.50464,13.14241 -3.50464,13.14241 l-6.13312,26.2848 s-16.647,49.94113 -9.63776,51.69345 s13.1424,0 15.77088,0 s1.75232,-33.29408 8.7616,-42.05569 s16.64705,-30.6656 18.39937,-35.0464 s23.65632,-64.83586 22.78016,-71.84514 S564.0940510791015,284.3964816064453 564.0940510791015,284.3964816064453 z" fill="#d0cde1" id="svg_53"/><path d="M600.4907310791016,288.35095160644534 s7.00928,0 7.88544,1.75232 s9.63776,13.1424 13.1424,15.77088 s15.77089,14.01856 15.77089,16.647 s-25.40865,21.904 -25.40865,21.904 s-10.51392,51.69345 -5.257,69.21665 s13.1424,59.57889 9.63776,62.20737 s-11.39008,3.50464 -11.39008,0 s-5.257,-41.17952 -9.63776,-49.065 s-17.52321,-57.82657 -12.26624,-71.84513 S600.4907310791016,288.35095160644534 600.4907310791016,288.35095160644534 z" fill="#d0cde1" id="svg_54"/><path d="M484.8375710791015,375.0907716064453 s-0.87616,27.161 8.7616,41.17953 A166.5054,166.5054 0 0 1 509.3700510791016,446.05977160644534 s15.77088,-4.3808 18.39936,-9.63776 s19.27553,-0.87616 19.27553,-2.62848 s-20.15169,-10.51393 -21.904,-12.26625 s-7.88544,-1.75232 -11.39008,-5.257 s-4.3808,-11.39008 -4.3808,-11.39008 l-3.50464,-22.78016 z" fill="#9f616a" id="svg_55"/><path d="M557.7966010791016,232.84877160644533 a16.6624,16.6624 0 0 1 -6.48423,-1.48454 c-4.4048,-2.37548 -5.57284,-9.14023 -2.21967,-12.85525 a16.61293,16.61293 0 0 1 3.08032,-2.47684 l6.66,-4.53311 c2.94555,-2.0049 5.96073,-4.04265 9.39622,-4.98779 a29.33183,29.33183 0 0 1 9.60574,-0.5670700000000001 A64.90619,64.90619 0 0 1 596.2350310791015,209.2897716064453 c5.87305,2.15589 11.35157,5.76262 14.90856,10.90931 c5.63894,8.15907 5.71644,19.163 2.61069,28.5823 s-9.00529,17.62147 -14.81834,25.65743 l-3.01623,-14.717 c-0.26865,-1.31082 -0.6160700000000001,-2.74747 -1.70628,-3.52326 c-2.7096400000000003,-1.92819 -6.02416,2.03077 -9.34973,2.0051 c-2.13681,-0.016490000000000005 -3.93081,-1.774 -4.740600000000001,-3.75152 a21.37921,21.37921 0 0 1 -1.05046,-6.29606 c-0.39683000000000007,-4.50861 -1.97271,-10.782 -6.24239,-13.2685 C568.8516010791016,232.57054160644532 562.2687310791016,233.25495160644533 557.7966010791016,232.84877160644533 z" fill="#2f2e41" id="svg_56"/><path d="M559.4185510791016,474.80404160644537 s2.95919,85.59464 4.71151,88.22312 s0,-88.49218 0,-88.49218 z" opacity="0.1" id="svg_57"/><path d="M525.1409310791015,295.3602316064453 h-7.00928 s-29.78944,40.30337 -26.2848,42.93185 s0,9.63776 0,9.63776 l-7.00928,13.1424 s-8.761610000000001,7.88544 -6.13313,9.63776 s6.13313,8.7616 6.13313,8.7616 s17.5232,-2.62848 22.78016,7.8854500000000005 l11.36363,-14.34589 z" fill="#d0cde1" id="svg_58"/><path d="M604.8715110791015,370.7100016064453 s-19.27552,0.87616 -41.17953,-13.1424 l-21.904,-9.63776 s-19.27553,-29.78945 -21.02785,-24.53249 s2.62848,15.77089 2.62848,15.77089 S494.68373107910156,344.6377716064453 496.26721107910157,353.0189916064453 c0.32617000000000007,1.7263600000000001 14.85516,-2.46067 14.85516,-2.46067 s-2.62848,16.647 12.26624,17.5232 s19.27553,-2.62848 19.27553,-2.62848 s63.08353,52.56961 73.59745,35.92257 S604.8715110791015,370.7100016064453 604.8715110791015,370.7100016064453 z" fill="#9f616a" id="svg_59"/><path d="M627.6517310791015,319.0165516064453 l9.63776,3.50464 v26.28481 l3.50464,5.257 s-0.87616,10.51392 -3.50464,13.1424 s-7.88544,1.75232 -6.13312,7.88544 a33.209,33.209 0 0 1 0.87616,12.26625 s-15.77089,20.15168 -16.64705,17.5232 s-13.1424,-35.04641 -14.89472,-35.04641 s17.5232,-50.81729 17.5232,-50.81729 z" fill="#d0cde1" id="svg_60"/><path d="M512.4366110791016,451.7548216064453 s-9.05931,-8.7616 -4.52965,-9.19968 s20.30053,-9.19968 22.929,-4.81888 S512.4366110791016,451.7548216064453 512.4366110791016,451.7548216064453 z" fill="#2f2e41" id="svg_61"/><path d="M210.68998107910159,684.6471816064453 c0,22.46856 -13.35644,30.31375 -29.83387,30.31375 q-0.57256,0 -1.1433200000000001,-0.012730000000000003 c-0.7634500000000001,-0.016360000000000006 -1.5196100000000001,-0.052710000000000014 -2.26669,-0.10361000000000001 c-14.87057,-1.05244 -26.42387,-9.30115 -26.42387,-30.19741 c0,-21.625140000000002 27.63447,-48.91242 29.71026,-50.93189 l0.0036400000000000013,-0.0036300000000000013 c0.08000000000000002,-0.07816000000000002 0.12000000000000001,-0.11633000000000002 0.12000000000000001,-0.11633000000000002 S210.68998107910159,662.1786216064453 210.68998107910159,684.6471816064453 z" fill="#0bd50b" id="svg_62" class="selected" fill-opacity="1"/><path d="M179.76913107910156,711.5236516064454 L190.68073107910158,696.2768216064453 L179.74186107910157,713.1977716064453 l-0.029070000000000006,1.7504400000000002 c-0.7634500000000001,-0.016360000000000006 -1.5196100000000001,-0.052710000000000014 -2.26669,-0.10361000000000001 l1.17607,-22.47946 l-0.009100000000000002,-0.17451000000000003 l0.020000000000000004,-0.03271000000000001 l0.11087000000000001,-2.1230700000000002 L167.77773107910156,673.0720816064453 l11.00071,15.37045 l0.025470000000000007,0.45078999999999997 l0.8888400000000002,-16.98456 l-9.38839,-17.52807 l9.5029,14.547 l0.9252,-35.21244 l0.0036400000000000013,-0.12000000000000001 v0.11633000000000002 l-0.15450000000000003,27.76715 l9.34661,-11.008 l-9.38477,13.40006 L180.29626107910155,679.0777716064454 l8.72677,-14.59429 l-8.76311,16.83189 l-0.13815,8.4541 l12.66935,-20.31277 l-12.71661,23.2629 z" fill="#3f3d56" id="svg_63" class=""/></g></svg>