<svg xmlns="http://www.w3.org/2000/svg" data-name="Layer 1" width="946" height="580.79405"><rect id="backgroundrect" width="100%" height="100%" x="0" y="0" fill="none" stroke="none"/><title>online_everywhere</title><g class="currentLayer" style=""><title>Layer 1</title><path d="M946,495.8244236914062 H611.852 c11.19763,-57.15135 10.15935,-117.64146 0,-180.62052 H946 C937.5150900000001,379.2742936914062 937.2525700000001,439.60061369140624 946,495.8244236914062 z" fill="#d0cde1" id="svg_1"/><rect x="739.415283203125" y="373.9055480957031" width="167.07398986816406" height="4.515510082244873" fill="#3f3d56" id="svg_2"/><rect x="739.415283203125" y="388.58099365234375" width="167.07398986816406" height="4.515510082244873" fill="#3f3d56" id="svg_3"/><rect x="739.415283203125" y="403.25640869140625" width="167.07398986816406" height="4.515510082244873" fill="#3f3d56" id="svg_4"/><rect x="739.415283203125" y="417.93182373046875" width="167.07398986816406" height="4.515510082244873" fill="#3f3d56" id="svg_5"/><rect x="739.415283203125" y="432.60723876953125" width="167.07398986816406" height="4.515510082244873" fill="#3f3d56" id="svg_6"/><rect x="651.36279296875" y="377.85662841796875" width="55.315040588378906" height="55.315040588378906" fill="#3f3d56" id="svg_7"/><path d="M490.94874,314.71824h.00024a62.4214,62.4214,0,0,1,62.4214,62.4214V495.89272a0,0,0,0,1,0,0H309.77445a0,0,0,0,1,0,0v-.00018A181.17429,181.17429,0,0,1,490.94874,314.71824Z" fill="#3f3d56" id="svg_8"/><path d="M53.44351,475.59939369140625 a5.39231,5.39231 0 0 0 -3.17944,1.11863 c-2.70982,-7.16131 -6.9048,-11.76339 -11.61765,-11.76339 s-8.90784,4.60208 -11.61766,11.76339 a5.39226,5.39226 0 0 0 -3.17943,-1.11863 c-5.35421,0 -9.69465,9.05506 -9.69465,20.225 h48.98347 C63.138149999999996,484.6544536914063 58.797709999999995,475.59939369140625 53.44351,475.59939369140625 z" fill="#0bd50b" id="svg_9" class="selected" fill-opacity="1"/><path d="M213.64063,496.75577369140626 h-93.6969 a627.00751,627.00751 0 0 0 0,-106.11456 h93.6969 C208.48185,426.9848036914062 208.18013000000002,462.4131436914063 213.64063,496.75577369140626 z" fill="#d0cde1" id="svg_10"/><rect x="133.49026489257812" y="412.08990478515625" width="67.73269653320312" height="4.515510082244873" fill="#3f3d56" id="svg_11"/><rect x="133.49026489257812" y="426.76531982421875" width="67.73269653320312" height="4.515510082244873" fill="#3f3d56" id="svg_12"/><rect x="133.49026489257812" y="441.44073486328125" width="67.73269653320312" height="4.515510082244873" fill="#3f3d56" id="svg_13"/><rect x="133.49026489257812" y="456.11614990234375" width="67.73269653320312" height="4.515510082244873" fill="#3f3d56" id="svg_14"/><rect x="133.49026489257812" y="470.79156494140625" width="67.73269653320312" height="4.515510082244873" fill="#3f3d56" id="svg_15"/><rect y="494.6955261230469" width="827.4672241210938" height="2.2577600479125977" fill="#3f3d56" id="svg_16"/><polygon points="328.096 483.106 336.005 525.287 370.277 498.923 349.846 474.538 328.096 483.106" fill="#a0616a" id="svg_17"/><polygon points="532.411 487.06 524.502 529.241 490.23 502.878 506.707 477.174 532.411 487.06" fill="#a0616a" id="svg_18"/><path d="M401.91330000000005,248.47313369140625 l-19.7724,21.09056 s-104.13462,46.13559 -104.13462,69.86247 s25.045,126.54334 35.59031,134.4523 a45.87118,45.87118 0 0 1 14.49976,18.45423 l28.99952,-14.49975 s-2.63632,-7.909 0,-11.86344 s0,-6.5908 0,-6.5908 s-3.95448,1.31816 -2.63632,-2.63632 s1.31816,-5.27264 0,-6.5908 s-5.27264,-13.1816 -5.27264,-13.1816 s1.31816,-47.45375 -17.13608,-64.58983 c0,0 85.68039,-25.045 96.22567,-42.18111 s13.18159,-79.08959 13.18159,-79.08959 z" fill="#2f2e41" id="svg_19"/><path d="M341.278,509.4687736914062 s-2.63632,-14.49976 -18.45424,-10.54528 v17.13608 L308.324,545.0590936914062 s-30.31767,34.27215 -2.63632,31.63583 s43.49928,-19.77239 43.49928,-27.681350000000002 s19.77239,-19.7724 19.77239,-19.7724 s21.09056,-22.40872 11.86344,-30.31768 s-18.2427,-21.32 -18.34847,-14.61449 S341.278,509.4687736914062 341.278,509.4687736914062 z" fill="#2f2e41" id="svg_20"/><path d="M458.59416999999996,239.24603369140624 l19.7724,34.27216 s104.13462,46.13559 104.13462,69.86247 s-25.045,126.54334 -35.59031,134.4523 a45.87118,45.87118 0 0 0 -14.49976,18.45423 L503.4116,481.7874236914063 s2.63632,-7.909 0,-11.86344 s0,-6.5908 0,-6.5908 s3.95448,1.31816 2.63632,-2.63632 s-1.31816,-5.27264 0,-6.5908 s5.27264,-13.1816 5.27264,-13.1816 s-1.31816,-47.45375 17.13608,-64.58983 c0,0 -93.58935,-32.954 -104.13462,-50.09007 c-13.50536,-21.94621 -3.63072,-112.06671 -6.5908,-81.72591 z" fill="#2f2e41" id="svg_21"/><path d="M519.22952,513.4232536914062 s2.63632,-14.49976 18.45424,-10.54528 V520.0140336914062 l14.49976,28.99952 s30.31767,34.27215 2.63632,31.63583 S511.32056,560.8770336914063 511.32056,552.9680336914063 s-19.77239,-19.7724 -19.77239,-19.7724 s-21.09056,-22.40872 -11.86344,-30.31768 s18.2427,-21.32 18.34847,-14.61449 S519.22952,513.4232536914062 519.22952,513.4232536914062 z" fill="#2f2e41" id="svg_22"/><circle cx="465.1849670410156" cy="48.112831115722656" r="34.272159576416016" fill="#a0616a" id="svg_23"/><path d="M441.45808999999997,63.93076369140624 s-1.31816,27.681350000000002 -18.45423,35.59031 s27.681350000000002,35.59032 27.681350000000002,35.59032 l32.954,-17.13608 s-7.909,-38.22664 -1.31816,-46.1356 S441.45808999999997,63.93076369140624 441.45808999999997,63.93076369140624 z" fill="#a0616a" id="svg_24"/><path d="M488.91184999999996,99.52103369140627 s-45.92046,31.31449 -59.86871,-4.11515 c0,0 -33.72064,13.34227 -32.40248,22.56939 s-2.63632,135.77046 -2.63632,135.77046 s55.36271,15.81792 71.18063,0 S488.91184999999996,99.52103369140627 488.91184999999996,99.52103369140627 z" fill="#d0cde1" id="svg_25"/><path d="M479.74848999999995,87.74316369140624 l5.20888,5.18711 s55.36271,23.72688 54.04455,36.90848 s-26.3632,75.13511 -26.3632,75.13511 s-13.18159,47.45375 -10.54528,60.63535 s6.5908,17.13607 3.95448,21.09055 s0,11.86344 0,14.49976 S490.23,314.38112369140623 490.23,314.38112369140623 s-25.045,-22.40872 -34.27216,-26.3632 s-15.81792,-34.27215 -9.22712,-60.63535 s7.909,-83.04407 7.909,-83.04407 l18.45424,-27.681350000000002 S473.22144000000003,97.05580369140625 479.74848999999995,87.74316369140624 z" fill="#575a89" id="svg_26"/><path d="M437.37980000000005,82.38503369140625 s-10.42146,-1.31816 -13.05778,5.27264 s-47.45376,21.09056 -47.45376,26.3632 s13.1816,71.18063 13.1816,71.18063 l2.63632,38.22663 L368.9593,240.56417369140627 s5.27264,17.13608 -1.31816,23.72688 s-14.49975,23.72687 -6.5908,26.36319 s56.68088,-15.81791 57.999,-35.59031 S415.09490000000005,220.79177369140626 424.322,206.29203369140623 s10.54527,-71.18062 10.54527,-71.18062 z" fill="#575a89" id="svg_27"/><path d="M497.19309,18.54310369140626 a39.58234,39.58234 0 0 0 -22.51595,-17.21293 l-6.884,5.50719 l2.67639,-6.42352 a36.43886,36.43886 0 0 0 -6.80395,-0.39324000000000003 l-6.19386,7.96359 l2.56356,-7.69081 a39.20389,39.20389 0 0 0 -27.04473,16.087 c-7.8833,11.367 -9.2135,27.17476 -1.46,38.63061 c2.12846,-6.5409 4.71174,-12.67846 6.8402,-19.21943 a19.36061,19.36061 0 0 0 5.04311,0.024570000000000005 l2.5896,-6.04225 l0.7233400000000001,5.78669 c8.02623,-0.6993400000000002 19.93112,-2.2345 27.54031,-3.64115 l-0.7398700000000001,-4.43919 l4.42673,3.689 c2.33131,-0.53673 3.71542,-1.02335 3.601,-1.39531 c5.65909,9.12315 12.58454,14.95029 18.24348,24.07337 C501.94668,40.978773691406246 504.42079,30.282103691406263 497.19309,18.54310369140626 z" fill="#2f2e41" id="svg_28"/><ellipse cx="496.82080078125" cy="49.43098831176758" rx="2.7681400775909424" ry="4.613560199737549" fill="#a0616a" id="svg_29"/><path d="M482.67100000000005,284.5312536914063 h-59.5679 a5.6530000000000005,5.6530000000000005 0 0 1 -5.6530000000000005,-5.6530000000000005 l-2.625,-77.9426 a5.6530000000000005,5.6530000000000005 0 0 1 5.6530000000000005,-5.6530000000000005 H485.29600000000005 a5.6530000000000005,5.6530000000000005 0 0 1 5.6530000000000005,5.6530000000000005 l-2.625,77.9426 A5.6530000000000005,5.6530000000000005 0 0 1 482.67100000000005,284.5312536914063 z" fill="#3f3d56" id="svg_30"/><circle cx="452.8870544433594" cy="218.90733337402344" r="5.2499098777771" fill="#d0cde1" id="svg_31"/><path d="M506.39637000000005,248.30311369140622 s-52.61833,18.03836 -39.61029,29.52434 s47.66435,-16.88 47.66435,-16.88 z" fill="#a0616a" id="svg_32"/><path d="M517.91136,121.92979369140625 s19.7724,-3.95448 25.045,13.1816 s31.63583,80.40774 23.72688,89.63486 s-36.90848,34.27216 -46.1356,39.5448 s-13.1816,5.27264 -13.1816,5.27264 l-11.86343,5.27264 l-3.95448,-30.31768 l13.5293,-8.01427 l20.74285,-17.03077 l-11.86344,-35.59031 z" fill="#575a89" id="svg_33"/><path d="M400.24668999999994,239.07603369140622 S452.865,257.1143536914062 439.85699999999997,268.60033369140626 s-47.66435,-16.88 -47.66435,-16.88 z" fill="#a0616a" id="svg_34"/><path d="M388.73170000000005,112.70267369140623 s-19.7724,-3.95448 -25.045,13.1816 S332.05083,206.29203369140623 339.95979,215.51913369140624 s36.90847,34.27216 46.13559,39.5448 s13.1816,5.27264 13.1816,5.27264 l11.86344,5.27264 l3.95448,-30.31768 l-13.5293,-8.01427 l-20.74286,-17.03077 l19.11332,-46.79467 z" fill="#575a89" id="svg_35"/><path d="M192.88166,470.4903136914063 l44.49457,-13.93891 a163.07909,163.07909 0 0 0 -16.61947,-53.0512 l-44.49456,13.9389 A100.03134,100.03134 0 0 1 192.88166,470.4903136914063 z" fill="#0bd50b" id="svg_36" class="" fill-opacity="1"/><path d="M637.03064,474.03076369140626 h46.6268 a163.07907,163.07907 0 0 0 0,-55.5935 h-46.6268 A100.0315,100.0315 0 0 1 637.03064,474.03076369140626 z" fill="#0bd50b" id="svg_37" class="" fill-opacity="1"/><path d="M851.51751,484.19067369140623 h46.62681 a163.07957,163.07957 0 0 0 0,-55.5935 H851.51751 A100.0315,100.0315 0 0 1 851.51751,484.19067369140623 z" fill="#0bd50b" id="svg_38" class="" fill-opacity="1"/></g></svg>